<?xml version="1.0" encoding="UTF-8"?>
<svg version="1.1" xmlns="http://www.w3.org/2000/svg" width="1024" height="1024">
<path d="M0 0 C1.20253418 0.09168457 2.40506836 0.18336914 3.64404297 0.27783203 C6.08699019 0.46599932 8.52970663 0.65718999 10.97216797 0.8515625 C14.12783911 1.10056572 17.28422602 1.333619 20.44140625 1.5625 C41.04913225 3.12164883 61.33867018 6.09273458 81.28857422 11.54443359 C83.23921594 12.07143041 85.1993056 12.56314053 87.16015625 13.05078125 C102.90684134 17.00925026 118.55154705 22.10514421 133.36328125 28.76953125 C136.47620107 30.14206388 139.61884442 31.32912262 142.8125 32.5 C149.91702976 35.20075344 156.6168985 38.55035679 163.35498047 42.046875 C165.41972251 43.11579655 167.49246583 44.16780974 169.56640625 45.21875 C180.61009769 50.87577971 191.0492555 57.34995411 201.4375 64.125 C202.05592773 64.5267041 202.67435547 64.9284082 203.31152344 65.34228516 C212.69835792 71.45470476 221.50243922 78.14753957 230.28442383 85.08374023 C233.48637174 87.60936054 236.70951363 90.08989044 240 92.5 C243.1032239 94.80618534 245.73115302 97.35421618 248.4375 100.125 C249.9200228 101.45695822 251.4091587 102.78156819 252.90234375 104.1015625 C258.17054384 108.82722372 263.21437112 113.74905444 268.20678711 118.76391602 C269.63087492 120.19339717 271.06028044 121.61740511 272.49023438 123.04101562 C279.74035207 130.30123801 286.5156239 137.7775043 292.8125 145.875 C293.28381348 146.47932861 293.75512695 147.08365723 294.24072266 147.70629883 C295.64337785 149.50967883 297.04112461 151.31675512 298.4375 153.125 C299.18 154.08277344 299.9225 155.04054688 300.6875 156.02734375 C310.72082746 169.17764242 319.94946723 182.93253873 328.4375 197.125 C328.94410156 197.93453125 329.45070313 198.7440625 329.97265625 199.578125 C346.52581833 226.23975139 357.71702213 256.37455594 366.59765625 286.31445312 C367.26418863 288.54501147 367.94910738 290.76651861 368.65625 292.984375 C371.93974705 303.62926059 373.80999608 314.63263632 375.7902832 325.58032227 C376.24907653 328.0930421 376.7240875 330.59901245 377.21557617 333.10522461 C379.05096361 342.66441193 380.06203429 352.07930298 380.51831055 361.79956055 C380.62484443 364.0592002 380.74766057 366.31750749 380.87304688 368.57617188 C381.70028765 384.16685171 381.56210149 399.71263952 381 415.3125 C380.95343262 416.6126001 380.90686523 417.9127002 380.85888672 419.25219727 C380.72461913 422.87673953 380.58287215 426.50088841 380.4375 430.125 C380.40543457 430.97384766 380.37336914 431.82269531 380.34033203 432.69726562 C380.01729235 440.77873296 378.95124603 448.44195021 377.24609375 456.34765625 C376.45261656 460.05438304 375.78150555 463.76685305 375.125 467.5 C371.98418741 484.60402924 367.68367494 501.45828527 362.15673828 517.94238281 C361.46748138 520.0340178 360.81971548 522.13386956 360.18359375 524.2421875 C353.68405875 545.35823403 344.17348415 565.97416652 333.46728516 585.26220703 C332.52577584 586.96531657 331.61105877 588.68316672 330.69921875 590.40234375 C328.10658188 595.28614808 325.32983227 599.91815242 322.203125 604.4765625 C320.32259324 607.29736014 318.53755647 610.16598337 316.75708008 613.05053711 C312.89952009 619.29757182 309.0209997 625.37963643 304.4375 631.125 C303.60583608 632.19067742 302.77520931 633.25716462 301.9453125 634.32421875 C299.57282316 637.36912262 297.18374466 640.40042653 294.78515625 643.42480469 C293.59291908 644.92892419 292.40547228 646.43683805 291.21875 647.9453125 C275.46197842 667.64127697 256.78092557 687.93090225 236.41015625 702.93359375 C233.54753752 705.04388167 230.84068954 707.2677221 228.125 709.5625 C209.12057596 725.15445082 187.48103903 738.87459511 165.41015625 749.66796875 C163.49118577 750.60854167 161.58140993 751.56822394 159.68359375 752.55078125 C151.26744963 756.8934648 142.60328695 760.55940979 133.84277344 764.14013672 C132.31260124 764.76668104 130.78436609 765.397993 129.25878906 766.03564453 C108.41732278 774.73659234 86.52602473 780.57687701 64.4375 785.125 C63.15166016 785.39521973 63.15166016 785.39521973 61.83984375 785.67089844 C18.6606263 794.67470962 -29.38279561 797.3769028 -73.0390625 789.8828125 C-78.3635417 788.96933225 -83.70734908 788.30258758 -89.0703125 787.65234375 C-93.29102593 787.0149877 -97.40438678 786.0797545 -101.5625 785.125 C-103.27178904 784.75231406 -104.9814374 784.38127304 -106.69140625 784.01171875 C-117.85358128 781.56330086 -128.7278316 778.75262535 -139.5625 775.125 C-140.54605469 774.80917969 -141.52960938 774.49335937 -142.54296875 774.16796875 C-148.91045549 772.10402477 -155.20826123 769.84509539 -161.5 767.5625 C-162.72650269 767.12284912 -162.72650269 767.12284912 -163.9777832 766.67431641 C-168.14278861 765.1477935 -171.77652712 763.46021352 -175.5625 761.125 C-177.6306669 760.29451847 -179.71549862 759.50471789 -181.8125 758.75 C-186.55679391 756.96623069 -190.89202761 754.99620177 -195.2578125 752.4375 C-197.95311669 750.90254711 -200.71320669 749.54898681 -203.5 748.1875 C-208.1425691 745.88675779 -212.5887125 743.40213846 -217 740.6875 C-219.82416441 738.96544853 -222.69060248 737.3285843 -225.5625 735.6875 C-230.18792128 732.99473882 -234.59122567 730.12040209 -238.9375 727 C-241.37714093 725.25739933 -243.8484352 723.56868839 -246.33007812 721.88671875 C-252.00649393 718.02277255 -257.40244956 713.92222054 -262.671875 709.515625 C-265.98216928 706.77792217 -269.36061405 704.13848998 -272.75 701.5 C-284.79151136 692.07670529 -284.79151136 692.07670529 -287.5625 689.125 C-287.5625 688.465 -287.5625 687.805 -287.5625 687.125 C-288.2225 687.125 -288.8825 687.125 -289.5625 687.125 C-289.5625 686.465 -289.5625 685.805 -289.5625 685.125 C-290.13484375 684.8775 -290.7071875 684.63 -291.296875 684.375 C-293.91260611 682.93183801 -295.71023456 681.24283778 -297.8125 679.125 C-298.51890625 678.42375 -299.2253125 677.7225 -299.953125 677 C-301.5625 675.125 -301.5625 675.125 -301.5625 673.125 C-302.1512793 672.86525391 -302.74005859 672.60550781 -303.34667969 672.33789062 C-305.71556562 671.0412153 -307.17694528 669.68629445 -309.015625 667.71875 C-309.634375 667.05746094 -310.253125 666.39617188 -310.890625 665.71484375 C-311.52484375 665.02519531 -312.1590625 664.33554687 -312.8125 663.625 C-313.4621875 662.93535156 -314.111875 662.24570312 -314.78125 661.53515625 C-319.5625 656.38225446 -319.5625 656.38225446 -319.5625 654.125 C-320.5525 653.795 -321.5425 653.465 -322.5625 653.125 C-323.94921875 651.56640625 -323.94921875 651.56640625 -325.25 649.6875 C-325.68699219 649.07003906 -326.12398438 648.45257812 -326.57421875 647.81640625 C-327.5625 646.125 -327.5625 646.125 -327.5625 644.125 C-328.2225 644.125 -328.8825 644.125 -329.5625 644.125 C-331.0703125 642.4453125 -331.0703125 642.4453125 -332.6875 640.25 C-333.22632813 639.53070312 -333.76515625 638.81140625 -334.3203125 638.0703125 C-335.5625 636.125 -335.5625 636.125 -335.5625 634.125 C-336.2225 634.125 -336.8825 634.125 -337.5625 634.125 C-339.078125 632.03515625 -339.078125 632.03515625 -340.8125 629.1875 C-341.74255859 627.68509766 -341.74255859 627.68509766 -342.69140625 626.15234375 C-343.61759766 624.65380859 -343.61759766 624.65380859 -344.5625 623.125 C-348.32462684 617.26402618 -348.32462684 617.26402618 -352.5625 611.75 C-355.02500731 608.51795915 -356.80886286 605.08676036 -358.71484375 601.50390625 C-361.37209916 596.6444434 -364.20827662 591.89461105 -367.04736328 587.13964844 C-371.83384977 579.08274017 -375.65866875 570.63614479 -379.5625 562.125 C-379.98789062 561.21363281 -380.41328125 560.30226563 -380.8515625 559.36328125 C-386.17242154 547.88052417 -390.68844521 536.17038044 -394.5625 524.125 C-395.22763161 522.14531693 -395.89431554 520.16615476 -396.5625 518.1875 C-409.59299553 478.94331228 -415.15400667 439.36711498 -415.5625 398.125 C-415.57764648 397.06361816 -415.59279297 396.00223633 -415.60839844 394.90869141 C-415.69149076 388.97772346 -415.68103785 383.05534514 -415.5625 377.125 C-415.54461426 376.18769043 -415.52672852 375.25038086 -415.50830078 374.28466797 C-415.25984551 363.23112864 -414.61192592 352.61141749 -412.30859375 341.7890625 C-411.57625962 338.1925734 -411.10443343 334.64518943 -410.6875 331 C-404.91473378 286.13199587 -387.39045469 241.45483546 -365.5625 202.125 C-365.23330566 201.52333008 -364.90411133 200.92166016 -364.56494141 200.30175781 C-356.64905776 185.85418875 -347.23998054 172.43364688 -337.5625 159.125 C-337.01980469 158.37734375 -336.47710937 157.6296875 -335.91796875 156.859375 C-329.62793391 148.33403852 -322.79469471 140.26045311 -315.65625 132.4375 C-313.87345614 130.46844409 -312.15131553 128.46609798 -310.4375 126.4375 C-290.12104222 103.12353205 -290.12104222 103.12353205 -281.41796875 99.14453125 C-279.21217321 98.20593967 -279.21217321 98.20593967 -278.5625 95.125 C-276.59483435 93.45014174 -274.63846923 91.90321245 -272.5625 90.375 C-271.36042324 89.47299444 -270.15860068 88.57065002 -268.95703125 87.66796875 C-268.37002441 87.2301709 -267.78301758 86.79237305 -267.17822266 86.34130859 C-265.16995095 84.82949088 -263.21092984 83.2600515 -261.25 81.6875 C-237.77126635 63.44993557 -211.02570792 46.82361442 -183.73583984 35.06787109 C-181.1114105 33.92930155 -178.50460659 32.75312578 -175.89453125 31.58203125 C-135.80439792 13.85063173 -93.85267145 5.03437402 -50.4375 0.875 C-49.52088593 0.78578278 -48.60427185 0.69656555 -47.65988159 0.60464478 C-31.6284696 -0.93587302 -16.08499888 -1.26992965 0 0 Z " fill="#0066A8" transform="translate(529.5625,115.875)"/>
<path d="M0 0 C1.31637451 0.00491455 2.63274902 0.0098291 3.98901367 0.01489258 C14.04606744 0.13543628 23.54762044 0.9172519 33.3125 3.3125 C34.02116211 3.47878906 34.72982422 3.64507812 35.45996094 3.81640625 C50.0942037 7.34272981 62.79889444 13.50642069 74.3125 23.3125 C75.323125 24.075625 76.33375 24.83875 77.375 25.625 C95.29199297 42.0171425 102.37197186 64.95530083 105.3125 88.3125 C105.40086844 88.95469671 105.48923689 89.59689342 105.58028316 90.25855064 C106.65369504 99.16305501 106.44477521 108.12011078 106.42602539 117.07275391 C106.42574297 118.96583047 106.42590233 120.85890714 106.4264679 122.75198364 C106.42675372 127.86694051 106.42089179 132.98187373 106.41389394 138.09682512 C106.40762456 143.45129812 106.40705377 148.80577171 106.40586853 154.1602478 C106.40276576 164.28888663 106.39456662 174.4175146 106.38451904 184.54614866 C106.37123027 198.24062556 106.36584947 211.93510545 106.36001682 225.62958717 C106.350626 247.19056623 106.33070004 268.75152241 106.3125 290.3125 C77.2725 290.3125 48.2325 290.3125 18.3125 290.3125 C18.26351562 279.67902344 18.21453125 269.04554688 18.1640625 258.08984375 C18.12863556 251.31314337 18.09272924 244.536451 18.0546875 237.75976562 C17.9945262 227.02711905 17.93620243 216.29448732 17.890625 205.56176758 C17.85740565 197.74130176 17.81741626 189.92090293 17.76970994 182.10051161 C17.74473812 177.96997004 17.72287534 173.83947119 17.70915604 169.70887566 C18.43900103 135.45408413 18.43900103 135.45408413 11.3125 102.3125 C11.03792969 101.56355469 10.76335937 100.81460938 10.48046875 100.04296875 C6.06063577 89.81075267 -2.22775155 83.0068374 -12.23828125 78.65234375 C-25.92474369 73.33585834 -44.15780956 73.04837773 -57.953125 78.10546875 C-71.58069352 84.12106685 -79.32956535 92.03172634 -85.3671875 105.6875 C-90.91983809 120.93264719 -90.82673023 137.72595453 -90.89282227 153.74145508 C-90.90242834 155.24089308 -90.91243989 156.74032852 -90.92282104 158.23976135 C-90.94958102 162.26777216 -90.97074483 166.29579433 -90.99082303 170.32384324 C-91.01286348 174.54922383 -91.04016283 178.77457056 -91.06687927 182.99992371 C-91.1165643 190.98223116 -91.16159167 198.96455766 -91.20490164 206.94690198 C-91.26377247 217.74687549 -91.32992757 228.54680429 -91.39565182 239.34673786 C-91.49884754 256.33529501 -91.59238807 273.32389121 -91.6875 290.3125 C-120.0675 290.3125 -148.4475 290.3125 -177.6875 290.3125 C-177.6875 196.5925 -177.6875 102.8725 -177.6875 6.3125 C-149.9675 6.3125 -122.2475 6.3125 -93.6875 6.3125 C-93.1925 26.6075 -93.1925 26.6075 -92.6875 47.3125 C-88.2325 42.3625 -88.2325 42.3625 -83.6875 37.3125 C-60.74538371 12.67815989 -34.12549239 -0.15161026 0 0 Z " fill="#F8F8F9" transform="translate(619.6875,420.6875)"/>
<path d="M0 0 C28.38 0 56.76 0 86 0 C86 93.39 86 186.78 86 283 C57.62 283 29.24 283 0 283 C0 189.61 0 96.22 0 0 Z " fill="#F8F8F9" transform="translate(296,428)"/>
<path d="M0 0 C13.03580687 8.82828419 21.09737864 20.35101752 24.3125 35.8125 C25.88440297 48.77267957 22.8435489 62.668915 15.28125 73.35546875 C6.60590715 84.18243433 -4.56036699 92.98120498 -18.6875 94.8125 C-36.92286239 96.18472627 -50.60147994 93.51999131 -65.12890625 81.8515625 C-73.54090752 74.19393698 -80.41720751 62.02071445 -81.0234375 50.52734375 C-81.33644834 34.05643839 -78.03516406 20.33516039 -66.4375 8.0625 C-48.28416228 -9.1786097 -21.5669229 -12.77379731 0 0 Z " fill="#F8F9F9" transform="translate(366.6875,297.1875)"/>
<path d="M0 0 C1.20253418 0.09168457 2.40506836 0.18336914 3.64404297 0.27783203 C6.08699019 0.46599932 8.52970663 0.65718999 10.97216797 0.8515625 C14.12783911 1.10056572 17.28422602 1.333619 20.44140625 1.5625 C41.04913225 3.12164883 61.33867018 6.09273458 81.28857422 11.54443359 C83.23921594 12.07143041 85.1993056 12.56314053 87.16015625 13.05078125 C102.90684134 17.00925026 118.55154705 22.10514421 133.36328125 28.76953125 C136.47620107 30.14206388 139.61884442 31.32912262 142.8125 32.5 C149.91702976 35.20075344 156.6168985 38.55035679 163.35498047 42.046875 C165.41972251 43.11579655 167.49246583 44.16780974 169.56640625 45.21875 C180.61009769 50.87577971 191.0492555 57.34995411 201.4375 64.125 C202.05592773 64.5267041 202.67435547 64.9284082 203.31152344 65.34228516 C212.69835792 71.45470476 221.50243922 78.14753957 230.28442383 85.08374023 C233.48637174 87.60936054 236.70951363 90.08989044 240 92.5 C243.1032239 94.80618534 245.73115302 97.35421618 248.4375 100.125 C249.9200228 101.45695822 251.4091587 102.78156819 252.90234375 104.1015625 C258.17054384 108.82722372 263.21437112 113.74905444 268.20678711 118.76391602 C269.63087492 120.19339717 271.06028044 121.61740511 272.49023438 123.04101562 C279.74035207 130.30123801 286.5156239 137.7775043 292.8125 145.875 C293.28381348 146.47932861 293.75512695 147.08365723 294.24072266 147.70629883 C295.64337785 149.50967883 297.04112461 151.31675512 298.4375 153.125 C299.18 154.08277344 299.9225 155.04054688 300.6875 156.02734375 C310.72082746 169.17764242 319.94946723 182.93253873 328.4375 197.125 C328.94410156 197.93453125 329.45070313 198.7440625 329.97265625 199.578125 C346.52581833 226.23975139 357.71702213 256.37455594 366.59765625 286.31445312 C367.26418863 288.54501147 367.94910738 290.76651861 368.65625 292.984375 C371.93974705 303.62926059 373.80999608 314.63263632 375.7902832 325.58032227 C376.24907653 328.0930421 376.7240875 330.59901245 377.21557617 333.10522461 C379.05096361 342.66441193 380.06203429 352.07930298 380.51831055 361.79956055 C380.62484443 364.0592002 380.74766057 366.31750749 380.87304688 368.57617188 C381.70028765 384.16685171 381.56210149 399.71263952 381 415.3125 C380.95343262 416.6126001 380.90686523 417.9127002 380.85888672 419.25219727 C380.72461913 422.87673953 380.58287215 426.50088841 380.4375 430.125 C380.40543457 430.97384766 380.37336914 431.82269531 380.34033203 432.69726562 C380.01729235 440.77873296 378.95124603 448.44195021 377.24609375 456.34765625 C376.45261656 460.05438304 375.78150555 463.76685305 375.125 467.5 C371.98418741 484.60402924 367.68367494 501.45828527 362.15673828 517.94238281 C361.46748138 520.0340178 360.81971548 522.13386956 360.18359375 524.2421875 C353.68405875 545.35823403 344.17348415 565.97416652 333.46728516 585.26220703 C332.52577584 586.96531657 331.61105877 588.68316672 330.69921875 590.40234375 C328.10658188 595.28614808 325.32983227 599.91815242 322.203125 604.4765625 C320.32259324 607.29736014 318.53755647 610.16598337 316.75708008 613.05053711 C312.89952009 619.29757182 309.0209997 625.37963643 304.4375 631.125 C303.60583608 632.19067742 302.77520931 633.25716462 301.9453125 634.32421875 C299.57282316 637.36912262 297.18374466 640.40042653 294.78515625 643.42480469 C293.59291908 644.92892419 292.40547228 646.43683805 291.21875 647.9453125 C275.46197842 667.64127697 256.78092557 687.93090225 236.41015625 702.93359375 C233.54753752 705.04388167 230.84068954 707.2677221 228.125 709.5625 C209.12057596 725.15445082 187.48103903 738.87459511 165.41015625 749.66796875 C163.49118577 750.60854167 161.58140993 751.56822394 159.68359375 752.55078125 C151.26744963 756.8934648 142.60328695 760.55940979 133.84277344 764.14013672 C132.31260124 764.76668104 130.78436609 765.397993 129.25878906 766.03564453 C84.72504229 784.62770524 84.72504229 784.62770524 73.4375 781.125 C74.37207031 780.86920166 75.30664062 780.61340332 76.26953125 780.34985352 C106.91134323 771.92966523 136.14596788 761.72578494 164.44873047 747.14599609 C166.44058297 746.12341726 168.44063761 745.11828012 170.44140625 744.11328125 C198.1617401 730.00815317 224.16960774 711.39055742 247.03125 690.3203125 C249.05481032 688.47414221 251.10896289 686.68235617 253.18359375 684.89453125 C257.63985207 681.0042624 261.82978068 676.88036305 266 672.6875 C266.71607422 671.97529297 267.43214844 671.26308594 268.16992188 670.52929688 C272.79852229 665.89227317 277.19369184 661.11563913 281.4375 656.125 C281.98124268 655.48796143 282.52498535 654.85092285 283.08520508 654.19458008 C314.26801787 617.39951034 339.00369934 575.50091923 355.4375 530.125 C355.81503418 529.09213867 356.19256836 528.05927734 356.58154297 526.99511719 C363.09531329 508.97505153 367.57284031 490.85200451 371.4375 472.125 C371.76754112 470.59099764 372.0981394 469.05711486 372.4296875 467.5234375 C374.73798804 456.21990395 375.8608255 444.74055491 377.09619141 433.27954102 C377.28160841 431.56582638 377.47265773 429.85251922 377.6932373 428.14297485 C378.45001451 422.04894916 378.61365072 416.02764568 378.640625 409.890625 C378.64759399 408.82718872 378.65456299 407.76375244 378.66174316 406.66809082 C378.67910777 403.23702017 378.68546756 399.80611283 378.6875 396.375 C378.68850708 395.20505493 378.68951416 394.03510986 378.69055176 392.82971191 C378.68018185 375.04410252 378.06788097 357.73624494 375.4375 340.125 C375.30359863 339.13999512 375.16969727 338.15499023 375.03173828 337.14013672 C364.40548364 259.14986779 327.1511523 186.90556322 274.4375 129.125 C273.529415 128.11245685 272.62188828 127.09941282 271.71484375 126.0859375 C267.13077578 120.98936504 262.51718999 116.10405828 257.25390625 111.69140625 C255.43817355 110.12558084 253.78807296 108.4759788 252.125 106.75 C248.04804964 102.61807953 243.57219605 99.02933855 239.04003906 95.41113281 C237.34819809 94.05332991 235.66973176 92.68010594 233.9921875 91.3046875 C153.57520125 25.68026834 50.46652248 -3.11629692 -63.5625 5.125 C-82.17387422 7.14085423 -100.39224986 10.66022366 -118.5625 15.125 C-119.38862793 15.32706055 -120.21475586 15.52912109 -121.06591797 15.73730469 C-144.05613346 21.47375098 -166.12990973 30.11045407 -187.5625 40.125 C-188.41972656 40.52267578 -189.27695312 40.92035156 -190.16015625 41.33007812 C-211.76044823 51.44558728 -232.43395377 63.89475559 -251.5625 78.125 C-252.92656365 79.12050414 -254.29115483 80.11528581 -255.65625 81.109375 C-264.65602868 87.70949786 -273.23209421 94.70018038 -281.5625 102.125 C-282.3359375 102.81166748 -282.3359375 102.81166748 -283.125 103.51220703 C-297.17017229 116.04806074 -311.06337275 129.18910351 -322.5625 144.125 C-323.46016562 145.2254189 -324.36146399 146.32288054 -325.265625 147.41796875 C-351.35702306 179.14934311 -371.31727995 215.07828837 -386.5625 253.125 C-387.06257568 254.35234863 -387.06257568 254.35234863 -387.57275391 255.60449219 C-400.82348145 288.35322363 -408.1583685 324.07586237 -411.5625 359.125 C-411.65748779 360.06158447 -411.75247559 360.99816895 -411.8503418 361.96313477 C-412.77579352 372.23523758 -412.76206041 382.5075533 -412.75 392.8125 C-412.74939575 393.76519775 -412.7487915 394.71789551 -412.74816895 395.69946289 C-412.65888643 447.64446303 -403.31111194 499.02531059 -383.3034668 547.11352539 C-382.5625 549.125 -382.5625 549.125 -382.5625 551.125 C-383.2225 551.125 -383.8825 551.125 -384.5625 551.125 C-388.21543199 542.21184594 -391.61165971 533.29988156 -394.5625 524.125 C-395.22763161 522.14531693 -395.89431554 520.16615476 -396.5625 518.1875 C-409.59299553 478.94331228 -415.15400667 439.36711498 -415.5625 398.125 C-415.57764648 397.06361816 -415.59279297 396.00223633 -415.60839844 394.90869141 C-415.69149076 388.97772346 -415.68103785 383.05534514 -415.5625 377.125 C-415.54461426 376.18769043 -415.52672852 375.25038086 -415.50830078 374.28466797 C-415.25984551 363.23112864 -414.61192592 352.61141749 -412.30859375 341.7890625 C-411.57625962 338.1925734 -411.10443343 334.64518943 -410.6875 331 C-404.91473378 286.13199587 -387.39045469 241.45483546 -365.5625 202.125 C-365.23330566 201.52333008 -364.90411133 200.92166016 -364.56494141 200.30175781 C-356.64905776 185.85418875 -347.23998054 172.43364688 -337.5625 159.125 C-337.01980469 158.37734375 -336.47710937 157.6296875 -335.91796875 156.859375 C-329.62793391 148.33403852 -322.79469471 140.26045311 -315.65625 132.4375 C-313.87345614 130.46844409 -312.15131553 128.46609798 -310.4375 126.4375 C-290.12104222 103.12353205 -290.12104222 103.12353205 -281.41796875 99.14453125 C-279.21217321 98.20593967 -279.21217321 98.20593967 -278.5625 95.125 C-276.59483435 93.45014174 -274.63846923 91.90321245 -272.5625 90.375 C-271.36042324 89.47299444 -270.15860068 88.57065002 -268.95703125 87.66796875 C-268.37002441 87.2301709 -267.78301758 86.79237305 -267.17822266 86.34130859 C-265.16995095 84.82949088 -263.21092984 83.2600515 -261.25 81.6875 C-237.77126635 63.44993557 -211.02570792 46.82361442 -183.73583984 35.06787109 C-181.1114105 33.92930155 -178.50460659 32.75312578 -175.89453125 31.58203125 C-135.80439792 13.85063173 -93.85267145 5.03437402 -50.4375 0.875 C-49.52088593 0.78578278 -48.60427185 0.69656555 -47.65988159 0.60464478 C-31.6284696 -0.93587302 -16.08499888 -1.26992965 0 0 Z " fill="#EFF6F9" transform="translate(529.5625,115.875)"/>
<path d="M0 0 C1.98983542 1.98983542 2.63841898 3.18652301 3.70703125 5.7265625 C4.03912598 6.49846924 4.3712207 7.27037598 4.71337891 8.06567383 C5.07608887 8.91025146 5.43879883 9.7548291 5.8125 10.625 C21.91150798 47.06500837 45.45209124 85.29137621 74.34765625 113.2734375 C76 115 76 115 76 117 C76.66 117 77.32 117 78 117 C79.625 119.5 79.625 119.5 81 122 C77.88609666 120.62626924 75.86503021 119.07437421 73.546875 116.59375 C72.928125 115.93246094 72.309375 115.27117187 71.671875 114.58984375 C71.03765625 113.90019531 70.4034375 113.21054687 69.75 112.5 C69.1003125 111.81035156 68.450625 111.12070312 67.78125 110.41015625 C63 105.25725446 63 105.25725446 63 103 C62.01 102.67 61.02 102.34 60 102 C58.61328125 100.44140625 58.61328125 100.44140625 57.3125 98.5625 C56.87550781 97.94503906 56.43851563 97.32757812 55.98828125 96.69140625 C55 95 55 95 55 93 C54.34 93 53.68 93 53 93 C51.4921875 91.3203125 51.4921875 91.3203125 49.875 89.125 C49.33617187 88.40570312 48.79734375 87.68640625 48.2421875 86.9453125 C47 85 47 85 47 83 C46.34 83 45.68 83 45 83 C43.484375 80.91015625 43.484375 80.91015625 41.75 78.0625 C40.81994141 76.56009766 40.81994141 76.56009766 39.87109375 75.02734375 C38.94490234 73.52880859 38.94490234 73.52880859 38 72 C34.23787316 66.13902618 34.23787316 66.13902618 30 60.625 C27.53749269 57.39295915 25.75363714 53.96176036 23.84765625 50.37890625 C21.19040084 45.5194434 18.35422338 40.76961105 15.51513672 36.01464844 C8.91504495 24.90496829 3.6263185 13.05564173 -1 1 C-0.67 0.67 -0.34 0.34 0 0 Z " fill="#F0F6F9" transform="translate(147,667)"/>
<path d="M0 0 C0.33 0 0.66 0 1 0 C1.03963867 0.64622314 1.07927734 1.29244629 1.12011719 1.95825195 C3.96196678 46.65457966 13.01179881 90.53493573 30.2590332 131.98852539 C31 134 31 134 31 136 C30.34 136 29.68 136 29 136 C25.34706801 127.08684594 21.95084029 118.17488156 19 109 C18.33486839 107.02031693 17.66818446 105.04115476 17 103.0625 C9.31561535 79.91929466 4.06145482 56.65173245 0.75 32.5 C0.5746875 31.24815918 0.399375 29.99631836 0.21875 28.70654297 C-1.03323001 19.20689219 -2.10138956 9.45625301 0 0 Z " fill="#E7F2F7" transform="translate(116,531)"/>
<path d="M0 0 C19.00455581 0.96355353 19.00455581 0.96355353 27 2 C27 2.66 27 3.32 27 4 C36.64544257 4.89874737 46.23446447 5.16299488 55.9140625 5.16796875 C57.41938303 5.17119588 58.92470326 5.17456094 60.43002319 5.17805481 C63.56810226 5.1839966 66.706154 5.18589993 69.84423828 5.18530273 C73.02072868 5.18522162 76.1970744 5.19214782 79.37353516 5.20581055 C102.44263918 5.40128374 102.44263918 5.40128374 125.40380859 3.4309082 C128.97317289 3.00321452 132.40898453 2.92648269 136 3 C136 3.33 136 3.66 136 4 C99.04541446 9.79647697 58.5324865 11.13878683 21.55078125 4.7578125 C15.99471688 3.80317854 10.40908305 3.1603377 4.80859375 2.52734375 C2 2 2 2 0 0 Z " fill="#9FBEDA" transform="translate(435,901)"/>
<path d="M0 0 C3.90666667 3.27069768 7.70096067 6.63016959 11.42919922 10.10375977 C38.94280672 35.72966236 69.65405362 57.56221152 103 75 C101.37890625 75.72265625 101.37890625 75.72265625 99 76 C96.15234375 74.55859375 96.15234375 74.55859375 92.9375 72.4375 C91.78018301 71.68902405 90.62130106 70.94296284 89.4609375 70.19921875 C88.88182617 69.82587402 88.30271484 69.4525293 87.70605469 69.06787109 C84.41416862 67.0073803 80.9709669 65.22740146 77.53515625 63.421875 C74.57592221 61.76215051 71.81017048 59.90190153 69 58 C67.65743833 57.12187838 66.31359906 56.24570819 64.96875 55.37109375 C55.25205658 49.01168843 45.99940742 42.33249102 37 35 C35.60849655 33.87707901 34.2165511 32.75470556 32.82421875 31.6328125 C28.86919331 28.43816158 24.92085027 25.23653631 21 22 C20.33081543 21.45553223 19.66163086 20.91106445 18.97216797 20.35009766 C18.00947998 19.55224854 18.00947998 19.55224854 17.02734375 18.73828125 C16.445896 18.26044189 15.86444824 17.78260254 15.26538086 17.2902832 C14 16 14 16 14 14 C13.34 14 12.68 14 12 14 C12 13.34 12 12.68 12 12 C11.42765625 11.7525 10.8553125 11.505 10.265625 11.25 C7.64989389 9.80683801 5.85226544 8.11783778 3.75 6 C3.04359375 5.29875 2.3371875 4.5975 1.609375 3.875 C0 2 0 2 0 0 Z " fill="#F4F8FB" transform="translate(228,789)"/>
<path d="M0 0 C0 0.33 0 0.66 0 1 C-19.47 1 -38.94 1 -59 1 C-59 0.67 -59 0.34 -59 0 C-39.60465527 -2.3611724 -19.34352912 -3.6307255 0 0 Z " fill="#FAFCFC" transform="translate(540,117)"/>
<path d="M0 0 C19.00455581 0.96355353 19.00455581 0.96355353 27 2 C27 2.66 27 3.32 27 4 C36.57 4.66 46.14 5.32 56 6 C55.67 6.66 55.34 7.32 55 8 C43.68353447 7.6325 32.71073225 6.67614787 21.55078125 4.7578125 C15.99471688 3.80317854 10.40908305 3.1603377 4.80859375 2.52734375 C2 2 2 2 0 0 Z " fill="#CCDCEB" transform="translate(435,901)"/>
<path d="M0 0 C1 3 1 3 -0.328125 6.109375 C-0.95878756 7.32812374 -1.59987031 8.54152363 -2.25 9.75 C-2.88224909 10.95205382 -3.51246288 12.15518039 -4.140625 13.359375 C-4.45281982 13.95613037 -4.76501465 14.55288574 -5.08666992 15.16772461 C-6.0099169 17.01989476 -6.82992969 18.8920459 -7.62890625 20.80078125 C-8.83324494 23.61090485 -10.04715663 25.67518647 -12 28 C-11.38253379 24.12624436 -10.2081036 21.00287982 -8.49609375 17.48046875 C-8.00302734 16.45888672 -7.50996094 15.43730469 -7.00195312 14.38476562 C-6.48568359 13.32966797 -5.96941406 12.27457031 -5.4375 11.1875 C-4.65729492 9.57584961 -4.65729492 9.57584961 -3.86132812 7.93164062 C-2.5792955 5.28524301 -1.29203889 2.6415229 0 0 Z " fill="#0E56A0" transform="translate(161,327)"/>
<path d="M0 0 C2.59250371 1.29625185 2.70112231 2.29548563 3.7265625 4.96484375 C4.0359375 5.76470703 4.3453125 6.56457031 4.6640625 7.38867188 C4.98117188 8.22978516 5.29828125 9.07089844 5.625 9.9375 C5.94984375 10.77474609 6.2746875 11.61199219 6.609375 12.47460938 C9 18.71735491 9 18.71735491 9 21 C8.34 21 7.68 21 7 21 C6.01315119 18.62794139 5.0354245 16.25276513 4.0625 13.875 C3.78470703 13.20984375 3.50691406 12.5446875 3.22070312 11.859375 C1.61444624 7.91146651 0.5247835 4.26469631 0 0 Z " fill="#F4F9FB" transform="translate(138,646)"/>
<path d="M0 0 C1.48521677 0.75911079 2.96303425 1.53271234 4.4375 2.3125 C5.26121094 2.74175781 6.08492187 3.17101562 6.93359375 3.61328125 C9 5 9 5 10 8 C5.69235185 6.43358249 1.93828536 4.31663844 -2 2 C-1.34 1.34 -0.68 0.68 0 0 Z " fill="#E4F0F6" transform="translate(714,170)"/>
<path d="M0 0 C-4.86628419 2.62030687 -9.4185702 4.3283194 -15 4 C-10.56616154 -0.43383846 -5.91252486 -0.20042457 0 0 Z " fill="#E4EFF6" transform="translate(391,136)"/>
<path d="M0 0 C1.8125 1.5625 1.8125 1.5625 3 3 C-1.69023454 2.43393721 -6.34500026 1.81462495 -11 1 C-11 0.67 -11 0.34 -11 0 C-7.01611946 -0.83383546 -3.91159585 -1.26862568 0 0 Z " fill="#E0EEF5" transform="translate(594,124)"/>
<path d="M0 0 C4.24822374 0.47202486 6.19989709 2.96655518 9 6 C8.67 6.99 8.34 7.98 8 9 C6.66368764 7.6905332 5.33102075 6.37734515 4 5.0625 C3.2575 4.33160156 2.515 3.60070312 1.75 2.84765625 C0 1 0 1 0 0 Z " fill="#D5E7F2" transform="translate(783,223)"/>
<path d="M0 0 C-1 3 -1 3 -3.8125 4.75 C-7.13982105 6.05483179 -7.79584277 6.02866653 -11 5 C-9.54462432 4.16151196 -8.08559627 3.32936066 -6.625 2.5 C-5.81289063 2.0359375 -5.00078125 1.571875 -4.1640625 1.09375 C-2 0 -2 0 0 0 Z " fill="#F5F9FB" transform="translate(331,159)"/>
<path d="M0 0 C1.98 0.99 1.98 0.99 4 2 C4 2.66 4 3.32 4 4 C4.66 4 5.32 4 6 4 C7.625 6.5 7.625 6.5 9 9 C5.18063472 7.44396229 2.73955562 5.04395069 0 2 C0 1.34 0 0.68 0 0 Z " fill="#E9F2F7" transform="translate(219,780)"/>
<path d="M0 0 C0.66 0.66 1.32 1.32 2 2 C-2.455 4.97 -2.455 4.97 -7 8 C-7 7.01 -7 6.02 -7 5 C-5.46875 3.61328125 -5.46875 3.61328125 -3.5 2.3125 C-2.8503125 1.87550781 -2.200625 1.43851563 -1.53125 0.98828125 C-1.0259375 0.66214844 -0.520625 0.33601562 0 0 Z " fill="#E4F0F6" transform="translate(280,189)"/>
<path d="M0 0 C6.625 -0.125 6.625 -0.125 10 1 C10.33 1.99 10.66 2.98 11 4 C7.37 3.01 3.74 2.02 0 1 C0 0.67 0 0.34 0 0 Z " fill="#E2F0F6" transform="translate(636,137)"/>
<path d="M0 0 C0.99 0.33 1.98 0.66 3 1 C3 1.66 3 2.32 3 3 C4.32 3.66 5.64 4.32 7 5 C7 5.99 7 6.98 7 8 C5.2925002 6.71937515 3.62626404 5.38232443 2 4 C2 3.34 2 2.68 2 2 C1.34 2 0.68 2 0 2 C0 1.34 0 0.68 0 0 Z " fill="#1E67A9" transform="translate(223,782)"/>
<path d="M0 0 C0.99 0.33 1.98 0.66 3 1 C2.67 4.3 2.34 7.6 2 11 C1.67 11 1.34 11 1 11 C0.67 7.37 0.34 3.74 0 0 Z " fill="#D7E8F2" transform="translate(906,461)"/>
<path d="M0 0 C3.53600465 1.91135386 5.78972846 3.62642766 8 7 C5 7 5 7 3.3125 5.625 C2 4 2 4 2 2 C1.34 2 0.68 2 0 2 C0 1.34 0 0.68 0 0 Z " fill="#1C66A9" transform="translate(790,231)"/>
<path d="M0 0 C0 0.66 0 1.32 0 2 C-5.45769231 5.10096154 -5.45769231 5.10096154 -8.203125 4.58984375 C-8.79609375 4.39519531 -9.3890625 4.20054687 -10 4 C-8.71086513 3.32845067 -7.41859796 2.66291141 -6.125 2 C-5.40570313 1.62875 -4.68640625 1.2575 -3.9453125 0.875 C-2 0 -2 0 0 0 Z " fill="#F8FBFC" transform="translate(350,150)"/>
<path d="M0 0 C2.64 1.65 5.28 3.3 8 5 C5 6 5 6 2.3125 4.75 C1.549375 4.1725 0.78625 3.595 0 3 C0 2.01 0 1.02 0 0 Z " fill="#F4F9FB" transform="translate(724,176)"/>
<path d="M0 0 C0.66 0.33 1.32 0.66 2 1 C2 1.66 2 2.32 2 3 C0.03852126 4.38938077 -1.96166576 5.7260411 -4 7 C-3.43628586 3.73045798 -2.50037734 2.17424117 0 0 Z " fill="#1062A6" transform="translate(219,245)"/>
</svg>
